<?xml version="1.0" encoding="iso-8859-1"?>
<!-- Generator: Adobe Illustrator 19.0.1, SVG Export Plug-In . SVG Version: 6.00 Build 0)  -->
<svg version="1.1" id="Layer_1" xmlns="http://www.w3.org/2000/svg" xmlns:xlink="http://www.w3.org/1999/xlink" x="0px" y="0px"
	 viewBox="0 0 44.404 51.327" style="enable-background:new 0 0 44.404 51.327;" xml:space="preserve">
<g>
	<g>
		<polygon style="fill:#FFFFFF;" points="36.404,13.351 36.404,28.84 44.148,21.096 		"/>
	</g>
	<g>
		<path style="fill:#FFFFFF;" d="M23.054,0c-0.881-0.881-2.418-0.881-3.299,0l-3.328,3.327h9.954L23.054,0z"/>
	</g>
	<g>
		<polygon style="fill:#FFFFFF;" points="6.405,13.348 -0.393,20.145 -1.42,21.172 6.405,28.997 		"/>
	</g>
	<g>
		<polygon style="fill:#FFFFFF;" points="11.393,37.111 11.541,36.961 -1.596,23.824 -1.596,24.124 -1.596,24.515 -1.596,25.431 
			-1.596,50.095 11.391,37.109 		"/>
	</g>
	<g>
		<path style="fill:#FFFFFF;" d="M41.28,49.8h-0.005L23.054,31.578c-0.881-0.881-2.418-0.881-3.299,0L1.078,50.252H1.075L0,51.327
			h42.808l-0.422-0.422L41.28,49.8z"/>
	</g>
	<g>
		<polygon style="fill:#FFFFFF;" points="31.188,36.885 31.414,37.111 31.418,37.108 44.404,50.096 44.404,24.515 44.404,24.121 
			44.404,23.668 		"/>
	</g>
	<g>
		<path style="fill:#FFFFFF;" d="M18.341,30.164c0.817-0.818,1.906-1.269,3.063-1.269c1.157,0,2.246,0.451,3.063,1.269l0.731,0.731
			l4.575,4.576l4.631-4.631V11.351l-6.024-6.024H8.405v25.67l4.551,4.551L18.341,30.164z M14.404,11.327h14v2h-14V11.327z
			 M14.404,17.327h10v2h-10V17.327z M14.404,23.327h14v2h-14V23.327z"/>
	</g>
</g>
</svg>
