<?xml version="1.0" encoding="iso-8859-1"?>
<!-- Generator: Adobe Illustrator 19.0.1, SVG Export Plug-In . SVG Version: 6.00 Build 0)  -->
<svg version="1.1" id="&#x421;&#x43B;&#x43E;&#x439;_1"
	 xmlns="http://www.w3.org/2000/svg" xmlns:xlink="http://www.w3.org/1999/xlink" x="0px" y="0px" viewBox="0 0 116.801 100.114"
	 style="enable-background:new 0 0 116.801 100.114;" xml:space="preserve">
<g>
	<path style="fill:#FFFFFF;" d="M73,68.829c0,1.128-0.414,2.109-1.238,2.934C70.938,72.586,69.957,73,68.828,73H47.973
		c-1.133,0-2.11-0.414-2.934-1.237c-0.828-0.824-1.238-1.806-1.238-2.934v-10.43H0v31.289c0,2.867,1.02,5.319,3.062,7.363
		c2.043,2.043,4.5,3.063,7.368,3.063h95.941c2.867,0,5.324-1.02,7.367-3.063c2.043-2.044,3.063-4.496,3.063-7.363V58.399H73V68.829z
		 M73,68.829"/>
	<rect x="50.059" y="58.399" style="fill:#FFFFFF;" width="16.684" height="8.344"/>
	<path style="fill:#FFFFFF;" d="M113.738,19.75c-2.043-2.043-4.5-3.061-7.367-3.061H83.43V6.258c0-1.738-0.609-3.215-1.828-4.433
		C80.387,0.61,78.91,0,77.172,0H39.629c-1.738,0-3.215,0.61-4.434,1.825c-1.215,1.214-1.824,2.695-1.824,4.433v10.43H10.43
		c-2.868,0-5.325,1.018-7.368,3.061C1.02,21.794,0,24.246,0,27.114v25.027h116.801V27.114
		C116.801,24.246,115.781,21.794,113.738,19.75L113.738,19.75z M75.086,16.689H41.715V8.344h33.371V16.689z M75.086,16.689"/>
</g>
</svg>
