<?xml version="1.0" encoding="iso-8859-1"?>
<!-- Generator: Adobe Illustrator 19.0.1, SVG Export Plug-In . SVG Version: 6.00 Build 0)  -->
<svg version="1.1" id="Layer_1" xmlns="http://www.w3.org/2000/svg" xmlns:xlink="http://www.w3.org/1999/xlink" x="0px" y="0px"
	 viewBox="0 0 60 36" style="enable-background:new 0 0 60 36;" xml:space="preserve">
<g>
	<path style="fill:#FFFFFF;" d="M30,0C19.033,0,10.484,6.864,0,17.993C9.033,27.509,16.613,36,30,36s23.226-10.749,30-17.806
		C53.065,9.928,43.226,0,30,0z M30,29.999c-6.617,0-12-5.383-12-11.999S23.383,6.001,30,6.001S42,11.384,42,18
		S36.617,29.999,30,29.999z"/>
	<path style="fill:#FFFFFF;" d="M30,11c-3.859,0-7,3.141-7,7s3.141,7,7,7c3.859,0,7-3.141,7-7S33.859,11,30,11z"/>
</g>
</svg>
