<?xml version="1.0" encoding="iso-8859-1"?>
<!-- Generator: Adobe Illustrator 19.0.1, SVG Export Plug-In . SVG Version: 6.00 Build 0)  -->
<svg version="1.1" id="Layer_1" xmlns="http://www.w3.org/2000/svg" xmlns:xlink="http://www.w3.org/1999/xlink" x="0px" y="0px"
	 viewBox="0 0 50 50" style="enable-background:new 0 0 50 50;" xml:space="preserve">
<path style="fill:#FFFFFF;" d="M25,0C11.193,0,0,11.192,0,25s11.193,25,25,25s25-11.192,25-25S38.807,0,25,0z M39.594,18.229
	L22.479,34.824c-0.291,0.282-0.668,0.423-1.044,0.423c-0.384,0-0.767-0.146-1.06-0.44l-6.668-6.668
	c-0.586-0.586-0.586-1.535,0-2.121c0.586-0.586,1.535-0.586,2.121,0l5.624,5.623l16.054-15.567c0.594-0.576,1.542-0.563,2.121,0.033
	C40.203,16.702,40.188,17.651,39.594,18.229z"/>
</svg>
